<?xml version="1.0" encoding="UTF-8" standalone="no"?>
<!-- Created with Inkscape (http://www.inkscape.org/) -->

<svg xmlns="http://www.w3.org/2000/svg" width="140px" height="35px" viewBox="10 10 75 25" fill="#FFFFFF">     
  <path
     d="M3 23.64H0V20h3.1v-.98c0-4.48 2.1-6.04 6.27-6.04 1.13 0 2 .17 2.66.3l-.32 3.57c-.4-.14-.8-.23-1.6-.23-1.3 0-1.8.93-1.8 2.4V20H12v3.64H8.2v11.38H3V23.64zm11-10.32h5.2v21.7H14v-21.7zm7.8.35h5.22v3.82h-5.2zm0 6.3h5.22V35h-5.2zm19.34 4.3c-.96-.6-1.9-.85-3.15-.85-2.3 0-4 1.56-4 4.17 0 2.3 2 3.9 4.2 3.9 1.2 0 2.35-.3 3.22-.7l.12 3.9c-1.3.4-2.87.6-4.27.6-4.97 0-8.76-2.9-8.76-7.88 0-5 3.8-7.9 8.8-7.9 1.56 0 2.95.24 4.13.82l-.37 3.8zM43.8 13.3H49v12.96h.06l4.34-6.33h5.7l-5.24 6.9L59.53 35h-6.3l-4.17-7.47H49V35h-5.2V13.3zm27.95 10.8c-.58-.16-1.16-.16-1.77-.16-2.43 0-3.8 1.76-3.8 4.72v6.36H61V19.95h4.75v2.78h.06c.9-1.92 2.2-3.13 4.5-3.13.6 0 1.28.1 1.8.17l-.25 4.34z" />
</svg>
